<svg width="95" height="24" viewBox="0 0 95 24" fill="none" xmlns="http://www.w3.org/2000/svg">
<g clip-path="url(#clip0_7_102)">
<path d="M14.2856 6.57144L9.99993 10.8572L5.71436 6.57144L10.0001 2.28572L14.2856 6.57144Z" fill="#DD682A"/>
</g>
<g clip-path="url(#clip1_7_102)">
<path d="M19.7144 12L15.4286 16.2857L11.1431 12L15.4288 7.71429L19.7144 12Z" fill="#DD682A"/>
</g>
<g clip-path="url(#clip2_7_102)">
<path d="M14.2856 17.4286L9.99993 21.7143L5.71436 17.4286L10.0001 13.1429L14.2856 17.4286Z" fill="#DD682A"/>
</g>
<g clip-path="url(#clip3_7_102)">
<path d="M8.85717 12L4.57146 16.2857L0.285889 12L4.5716 7.71429L8.85717 12Z" fill="#DD682A"/>
</g>
<path d="M28.32 19.28C27.1733 19.28 26.0667 19.14 25 18.86C23.9467 18.5667 23.0867 18.1933 22.42 17.74L23.72 14.82C24.3467 15.22 25.0667 15.5533 25.88 15.82C26.7067 16.0733 27.5267 16.2 28.34 16.2C28.8867 16.2 29.3267 16.1533 29.66 16.06C29.9933 15.9533 30.2333 15.82 30.38 15.66C30.54 15.4867 30.62 15.2867 30.62 15.06C30.62 14.74 30.4733 14.4867 30.18 14.3C29.8867 14.1133 29.5067 13.96 29.04 13.84C28.5733 13.72 28.0533 13.6 27.48 13.48C26.92 13.36 26.3533 13.2067 25.78 13.02C25.22 12.8333 24.7067 12.5933 24.24 12.3C23.7733 11.9933 23.3933 11.6 23.1 11.12C22.8067 10.6267 22.66 10.0067 22.66 9.26C22.66 8.42 22.8867 7.66 23.34 6.98C23.8067 6.3 24.5 5.75333 25.42 5.34C26.34 4.92667 27.4867 4.72 28.86 4.72C29.78 4.72 30.68 4.82667 31.56 5.04C32.4533 5.24 33.2467 5.54 33.94 5.94L32.72 8.88C32.0533 8.52 31.3933 8.25333 30.74 8.08C30.0867 7.89333 29.4533 7.8 28.84 7.8C28.2933 7.8 27.8533 7.86 27.52 7.98C27.1867 8.08667 26.9467 8.23333 26.8 8.42C26.6533 8.60667 26.58 8.82 26.58 9.06C26.58 9.36667 26.72 9.61333 27 9.8C27.2933 9.97333 27.6733 10.12 28.14 10.24C28.62 10.3467 29.14 10.46 29.7 10.58C30.2733 10.7 30.84 10.8533 31.4 11.04C31.9733 11.2133 32.4933 11.4533 32.96 11.76C33.4267 12.0533 33.8 12.4467 34.08 12.94C34.3733 13.42 34.52 14.0267 34.52 14.76C34.52 15.5733 34.2867 16.3267 33.82 17.02C33.3667 17.7 32.68 18.2467 31.76 18.66C30.8533 19.0733 29.7067 19.28 28.32 19.28ZM39.8092 19L35.2692 5H39.3492L43.1692 17.12H41.1092L45.1292 5H48.7692L52.5692 17.12H50.5892L54.5292 5H58.3092L53.7692 19H49.5292L46.2892 8.7H47.4292L44.0492 19H39.8092ZM59.7281 19V5H63.6881V19H59.7281ZM71.4255 19.28C70.2788 19.28 69.1721 19.14 68.1055 18.86C67.0521 18.5667 66.1921 18.1933 65.5255 17.74L66.8255 14.82C67.4521 15.22 68.1721 15.5533 68.9855 15.82C69.8121 16.0733 70.6321 16.2 71.4455 16.2C71.9921 16.2 72.4321 16.1533 72.7655 16.06C73.0988 15.9533 73.3388 15.82 73.4855 15.66C73.6455 15.4867 73.7255 15.2867 73.7255 15.06C73.7255 14.74 73.5788 14.4867 73.2855 14.3C72.9921 14.1133 72.6121 13.96 72.1455 13.84C71.6788 13.72 71.1588 13.6 70.5855 13.48C70.0255 13.36 69.4588 13.2067 68.8855 13.02C68.3255 12.8333 67.8121 12.5933 67.3455 12.3C66.8788 11.9933 66.4988 11.6 66.2055 11.12C65.9121 10.6267 65.7655 10.0067 65.7655 9.26C65.7655 8.42 65.9921 7.66 66.4455 6.98C66.9121 6.3 67.6055 5.75333 68.5255 5.34C69.4455 4.92667 70.5921 4.72 71.9655 4.72C72.8855 4.72 73.7855 4.82667 74.6655 5.04C75.5588 5.24 76.3521 5.54 77.0455 5.94L75.8255 8.88C75.1588 8.52 74.4988 8.25333 73.8455 8.08C73.1921 7.89333 72.5588 7.8 71.9455 7.8C71.3988 7.8 70.9588 7.86 70.6255 7.98C70.2921 8.08667 70.0521 8.23333 69.9055 8.42C69.7588 8.60667 69.6855 8.82 69.6855 9.06C69.6855 9.36667 69.8255 9.61333 70.1055 9.8C70.3988 9.97333 70.7788 10.12 71.2455 10.24C71.7255 10.3467 72.2455 10.46 72.8055 10.58C73.3788 10.7 73.9455 10.8533 74.5055 11.04C75.0788 11.2133 75.5988 11.4533 76.0655 11.76C76.5321 12.0533 76.9055 12.4467 77.1855 12.94C77.4788 13.42 77.6255 14.0267 77.6255 14.76C77.6255 15.5733 77.3921 16.3267 76.9255 17.02C76.4721 17.7 75.7855 18.2467 74.8655 18.66C73.9588 19.0733 72.8121 19.28 71.4255 19.28ZM88.8147 5H92.7747V19H88.8147V5ZM83.4147 19H79.4547V5H83.4147V19ZM89.0947 13.54H83.1347V10.26H89.0947V13.54Z" fill="#F5F5F4"/>
<defs>
<clipPath id="clip0_7_102">
<rect width="9.14286" height="9.14286" fill="white" transform="translate(5.42847 2)"/>
</clipPath>
<clipPath id="clip1_7_102">
<rect width="9.14286" height="9.14286" fill="white" transform="translate(10.8572 7.42857)"/>
</clipPath>
<clipPath id="clip2_7_102">
<rect width="9.14286" height="9.14286" fill="white" transform="translate(5.42847 12.8571)"/>
</clipPath>
<clipPath id="clip3_7_102">
<rect width="9.14286" height="9.14286" fill="white" transform="translate(0 7.42857)"/>
</clipPath>
</defs>
</svg>
